<?xml version="1.0" encoding="UTF-8" standalone="no"?><!DOCTYPE svg PUBLIC "-//W3C//DTD SVG 1.1//EN" "http://www.w3.org/Graphics/SVG/1.1/DTD/svg11.dtd"><svg width="100%" height="100%" viewBox="0 0 3750 4709" version="1.1" xmlns="http://www.w3.org/2000/svg" xmlns:xlink="http://www.w3.org/1999/xlink" xml:space="preserve" xmlns:serif="http://www.serif.com/" style="fill-rule:evenodd;clip-rule:evenodd;stroke-linejoin:round;stroke-miterlimit:2;"><g><g><path d="M507.018,2145.629c21.675,-3.956 47.685,-5.933 69.36,-11.867c104.04,-17.8 205.912,-45.489 309.951,-55.379c56.355,-7.911 91.035,-43.512 91.035,-90.979c-2.167,-47.467 -39.015,-83.068 -95.37,-89.001l-32.512,-1.978c-17.34,0 -36.847,1.978 -56.355,5.933l-21.675,1.978c-13.005,0 -15.172,-5.933 -17.34,-25.711c-8.67,-55.379 -15.172,-110.757 -17.34,-166.136c-4.335,-94.935 -6.502,-189.869 -6.502,-282.826c0,-241.292 13.005,-482.584 28.177,-723.876c8.67,-136.468 19.507,-268.981 19.507,-405.45l0,-75.157c0,-11.867 8.67,-15.822 19.507,-15.822c36.847,-3.956 73.695,-7.911 110.542,-13.845c23.842,-3.956 49.852,-9.889 71.527,-23.734c28.177,-17.8 45.517,-43.512 45.517,-75.157l0,-9.889c-6.502,-35.6 -34.68,-63.29 -73.695,-73.179c-10.837,-3.956 -23.842,-3.956 -36.847,-3.956l-36.847,1.978c-114.877,13.845 -229.754,25.711 -348.966,33.623l-91.035,0c-56.355,3.956 -91.035,39.556 -91.035,81.09l0,7.911c2.167,37.578 43.35,87.023 95.37,87.023l15.172,-1.978c15.172,-1.978 28.177,-1.978 43.35,-1.978l41.182,0c36.847,1.978 43.35,-1.978 43.35,23.734l0,21.756c-17.34,241.292 -36.847,482.584 -47.685,723.876c-6.502,144.38 -10.837,290.737 -10.837,435.117c0,126.579 4.335,251.181 13.005,377.76c4.335,43.512 10.837,87.023 17.34,130.535l4.335,17.8c0,9.889 -8.67,11.867 -30.345,17.8c-13.005,3.956 -23.842,5.933 -36.847,5.933l-21.675,-1.978c-41.182,0 -75.862,21.756 -88.867,55.379c-4.335,9.889 -4.335,19.778 -4.335,27.689c0,23.734 10.837,45.489 32.512,63.29c21.675,19.778 49.852,29.667 80.197,29.667l15.172,0Z" style="fill:#2b412c;"/></g><g><g><path d="M968.674,4691.979c41.182,0 84.532,-15.789 119.212,-45.614c19.507,-15.789 32.512,-35.088 45.517,-54.386c23.842,-35.088 41.182,-73.684 56.355,-110.526c71.527,-173.683 119.212,-352.63 166.897,-531.576c82.365,-314.033 158.227,-629.821 212.414,-949.118c4.335,-38.596 13.005,-77.193 13.005,-115.789l-2.167,-28.07c-4.335,-45.614 -34.68,-73.684 -82.365,-78.947l-8.67,0c-41.182,0 -75.862,22.807 -91.035,61.403c-10.837,26.316 -17.34,52.631 -21.675,80.701c-30.345,152.631 -52.02,307.016 -86.7,459.647c-56.355,235.086 -112.71,470.173 -177.734,705.259c-34.68,119.298 -71.527,238.595 -119.212,354.384c-8.67,17.544 -13.005,36.842 -28.177,50.877c-13.005,-10.526 -15.172,-22.807 -21.675,-35.088c-28.177,-56.14 -49.852,-115.789 -69.36,-177.192c-91.035,-291.226 -145.222,-589.47 -195.074,-887.714l-58.522,-347.367c-8.67,-54.386 -23.842,-110.526 -23.842,-166.666l2.167,-35.088c0,-7.018 -2.167,-15.789 -4.335,-24.561c-13.005,-35.088 -47.685,-57.894 -88.867,-57.894c-43.35,0 -78.03,22.807 -88.867,57.894c-8.67,29.824 -8.67,59.649 -8.67,89.473c2.167,63.158 6.502,126.315 17.34,189.473c34.68,212.28 67.192,426.313 108.375,638.593c39.015,189.473 78.03,377.191 136.552,563.155c26.01,85.964 56.355,171.929 101.872,252.63c19.507,36.842 43.35,71.929 80.197,99.999c34.68,28.07 75.862,42.105 117.045,42.105Z" style="fill:#2b412c;"/><path d="M2802.371,4658.646c65.025,0 130.05,-14.035 192.907,-42.105c67.192,-29.824 125.715,-70.175 175.567,-117.543c49.852,-42.105 88.867,-89.473 123.547,-140.35c8.67,-15.789 15.172,-31.579 15.172,-45.614c0,-24.561 -15.172,-45.614 -39.015,-59.649c-15.172,-8.772 -32.512,-12.281 -47.685,-12.281c-28.177,0 -56.355,10.526 -82.365,33.333c-15.172,12.281 -28.177,28.07 -43.35,42.105c-36.847,35.088 -71.527,71.929 -112.71,103.508c-36.847,26.316 -75.862,50.877 -123.547,64.912c-19.507,5.263 -39.015,7.018 -58.522,7.018c-41.182,0 -80.197,-12.281 -114.877,-40.351c-28.177,-22.807 -49.852,-52.631 -62.857,-84.21c-17.34,-38.596 -28.177,-78.947 -36.847,-119.298c-17.34,-101.754 -23.842,-203.508 -23.842,-305.261c0,-64.912 2.167,-129.824 6.502,-194.736c0,-19.298 10.837,-24.561 32.512,-26.316c125.715,-15.789 251.429,-31.579 379.311,-38.596c32.512,-1.754 65.025,-5.263 97.537,-14.035c39.015,-10.526 62.857,-36.842 62.857,-66.666l0,-8.772c-2.167,-35.088 -30.345,-61.403 -75.862,-70.175c-19.507,-5.263 -41.182,-7.018 -62.857,-7.018l-32.512,1.754c-86.7,5.263 -171.232,12.281 -253.597,24.561c-43.35,5.263 -84.532,12.281 -132.217,19.298l6.502,-75.438c15.172,-163.157 45.517,-328.068 47.685,-492.98c0,-19.298 8.67,-24.561 30.345,-24.561c114.877,-3.509 229.754,-7.018 342.464,-7.018c71.527,0 140.887,1.754 210.247,5.263l26.01,1.754l39.015,-3.509c45.517,-7.018 78.03,-38.596 78.03,-73.684l-4.335,-21.053c-8.67,-28.07 -30.345,-45.614 -62.857,-56.14c-36.847,-10.526 -75.862,-14.035 -112.71,-14.035l-192.907,-3.509c-106.207,0 -212.414,3.509 -318.621,8.772c-15.172,0 -28.177,0 -43.35,-7.018c-23.842,-15.789 -47.685,-22.807 -69.36,-22.807c-26.01,0 -52.02,10.526 -78.03,33.333c-10.837,12.281 -23.842,17.544 -43.35,19.298c-32.512,1.754 -65.025,3.509 -95.37,14.035c-36.847,12.281 -56.355,36.842 -56.355,64.912c0,7.018 0,12.281 2.167,19.298c8.67,33.333 43.35,54.386 88.867,54.386c15.172,0 28.177,0 43.35,-1.754c15.172,0 21.675,3.509 21.675,14.035l-65.025,573.681c-2.167,17.544 -8.67,28.07 -28.177,38.596c-30.345,14.035 -47.685,36.842 -47.685,59.649c0,21.053 13.005,42.105 39.015,57.894c19.507,12.281 23.842,24.561 23.842,43.859c-4.335,52.631 -6.502,107.017 -6.502,159.648c0,61.403 2.167,122.806 6.502,184.21c6.502,75.438 15.172,150.876 34.68,226.315c19.507,66.666 47.685,131.578 97.537,189.473c75.862,85.964 186.404,131.578 303.449,131.578Z" style="fill:#2b412c;"/></g></g><path d="M2372.171,286.396l66.688,92.029l66.688,-92.029c111.146,-153.825 289.867,-244.963 479.704,-244.963c326.767,0 591.738,264.971 591.738,591.738l0,11.558c0,498.821 -621.971,1078.113 -946.513,1325.742c-55.129,41.792 -122.704,62.688 -191.617,62.688c-68.908,0 -136.929,-20.45 -191.617,-62.688c-324.546,-247.633 -946.513,-826.921 -946.513,-1325.742l0,-11.558c0,-326.767 264.971,-591.738 591.738,-591.738c189.837,0 368.558,91.138 479.704,244.963Z" style="fill:#99c799;fill-rule:nonzero;"/></g></svg>