<?xml version="1.0" encoding="UTF-8" standalone="no"?><!DOCTYPE svg PUBLIC "-//W3C//DTD SVG 1.1//EN" "http://www.w3.org/Graphics/SVG/1.1/DTD/svg11.dtd"><svg width="100%" height="100%" viewBox="0 0 6559 1130" version="1.1" xmlns="http://www.w3.org/2000/svg" xmlns:xlink="http://www.w3.org/1999/xlink" xml:space="preserve" xmlns:serif="http://www.serif.com/" style="fill-rule:evenodd;clip-rule:evenodd;stroke-linejoin:round;stroke-miterlimit:2;"><g><g transform="matrix(1,0,0,0.912485,0,-388.648762)"><g transform="matrix(520.197842,0,0,520.197842,3027.324769,904.430374)"></g><text x="2917.563px" y="904.43px" style="font-family:'SweetyStrawberry', 'Sweety Strawberry';font-size:520.198px;fill:#2b412c;">I</text></g><g transform="matrix(1,0,0,0.809404,0,-623.399919)"><g transform="matrix(520.197842,0,0,520.197842,3621.386112,2074.563157)"></g><text x="2922.24px" y="2074.563px" style="font-family:'SweetyStrawberry', 'Sweety Strawberry';font-size:520.198px;fill:#2b412c;">V<tspan x="3374.292px " y="2074.563px ">E</tspan></text></g><path d="M3402.655,68.735l16.005,22.087l16.005,-22.087c26.675,-36.918 69.568,-58.791 115.129,-58.791c78.424,0 142.017,63.593 142.017,142.017l0,2.774c0,119.717 -149.273,258.747 -227.163,318.178c-13.231,10.03 -29.449,15.045 -45.988,15.045c-16.538,0 -32.863,-4.908 -45.988,-15.045c-77.891,-59.432 -227.163,-198.461 -227.163,-318.178l0,-2.774c0,-78.424 63.593,-142.017 142.017,-142.017c45.561,0 88.454,21.873 115.129,58.791Z" style="fill:#99c799;fill-rule:nonzero;"/></g><path d="M58.333,585.417c-3.449,0 -6.25,-2.801 -6.25,-6.25c-0,-3.449 2.801,-6.25 6.25,-6.25l6.27,0c3.449,0 6.25,2.801 6.25,6.25c0,3.449 -2.801,6.25 -6.25,6.25l-6.27,0Zm43.887,0c-3.449,0 -6.25,-2.801 -6.25,-6.25c0,-3.449 2.801,-6.25 6.25,-6.25l12.539,0c3.449,0 6.25,2.801 6.25,6.25c0,3.449 -2.801,6.25 -6.25,6.25l-12.539,0Zm50.158,0c-3.449,0 -6.25,-2.801 -6.25,-6.25c0,-3.449 2.801,-6.25 6.25,-6.25l12.539,0c3.449,0 6.25,2.801 6.25,6.25c0,3.449 -2.801,6.25 -6.25,6.25l-12.539,0Zm50.158,0c-3.449,0 -6.25,-2.801 -6.25,-6.25c0,-3.449 2.801,-6.25 6.25,-6.25l12.539,0c3.449,0 6.25,2.801 6.25,6.25c0,3.449 -2.801,6.25 -6.25,6.25l-12.539,0Zm50.157,0c-3.449,0 -6.25,-2.801 -6.25,-6.25c0,-3.449 2.801,-6.25 6.25,-6.25l12.54,0c3.449,0 6.25,2.801 6.25,6.25c0,3.449 -2.801,6.25 -6.25,6.25l-12.54,0Zm50.156,0c-3.449,0 -6.25,-2.801 -6.25,-6.25c0,-3.449 2.801,-6.25 6.25,-6.25l12.539,0c3.449,0 6.25,2.801 6.25,6.25c0,3.449 -2.801,6.25 -6.25,6.25l-12.539,0Zm50.156,0c-3.449,0 -6.25,-2.801 -6.25,-6.25c0,-3.449 2.801,-6.25 6.25,-6.25l12.539,0c3.449,0 6.25,2.801 6.25,6.25c0,3.449 -2.801,6.25 -6.25,6.25l-12.539,0Zm50.157,0c-3.449,0 -6.25,-2.801 -6.25,-6.25c0,-3.449 2.801,-6.25 6.25,-6.25l12.539,0c3.449,0 6.25,2.801 6.25,6.25c0,3.449 -2.801,6.25 -6.25,6.25l-12.539,0Zm50.159,-0c-3.449,0 -6.25,-2.801 -6.25,-6.25c0,-3.449 2.801,-6.25 6.25,-6.25l12.541,0c3.449,0 6.25,2.801 6.25,6.25c0,3.449 -2.801,6.25 -6.25,6.25l-12.541,0Zm50.159,0c-3.449,0 -6.25,-2.801 -6.25,-6.25c0,-3.449 2.801,-6.25 6.25,-6.25l12.537,0c3.449,0 6.25,2.801 6.25,6.25c0,3.449 -2.801,6.25 -6.25,6.25l-12.537,0Zm50.157,0c-3.449,0 -6.25,-2.801 -6.25,-6.25c0,-3.449 2.801,-6.25 6.25,-6.25l12.537,0c3.449,0 6.25,2.801 6.25,6.25c0,3.449 -2.801,6.25 -6.25,6.25l-12.537,0Zm50.154,0c-3.449,0 -6.25,-2.801 -6.25,-6.25c0,-3.449 2.801,-6.25 6.25,-6.25l12.54,0c3.449,0 6.25,2.801 6.25,6.25c0,3.449 -2.801,6.25 -6.25,6.25l-12.54,0Zm50.158,0c-3.449,0 -6.25,-2.801 -6.25,-6.25c0,-3.449 2.801,-6.25 6.25,-6.25l12.537,0c3.449,0 6.25,2.801 6.25,6.25c0,3.449 -2.801,6.25 -6.25,6.25l-12.537,-0Zm50.156,0c-3.449,0 -6.25,-2.801 -6.25,-6.25c0,-3.449 2.801,-6.25 6.25,-6.25l12.537,0c3.449,0 6.25,2.801 6.25,6.25c0,3.449 -2.801,6.25 -6.25,6.25l-12.537,0Zm50.161,0c-3.449,0 -6.25,-2.801 -6.25,-6.25c0,-3.449 2.801,-6.25 6.25,-6.25l12.541,0c3.449,0 6.25,2.801 6.25,6.25c0,3.449 -2.801,6.25 -6.25,6.25l-12.541,0Zm50.159,0c-3.449,0 -6.25,-2.801 -6.25,-6.25c0,-3.449 2.801,-6.25 6.25,-6.25l12.539,0c3.449,0 6.25,2.801 6.25,6.25c0,3.449 -2.801,6.25 -6.25,6.25l-12.539,0Zm50.156,0c-3.449,0 -6.25,-2.801 -6.25,-6.25c0,-3.449 2.801,-6.25 6.25,-6.25l12.539,0c3.449,0 6.25,2.801 6.25,6.25c0,3.449 -2.801,6.25 -6.25,6.25l-12.539,0Zm50.157,0c-3.449,0 -6.25,-2.801 -6.25,-6.25c0,-3.449 2.801,-6.25 6.25,-6.25l12.541,0c3.449,0 6.25,2.801 6.25,6.25c0,3.449 -2.801,6.25 -6.25,6.25l-12.541,0Zm50.159,-0c-3.449,0 -6.25,-2.801 -6.25,-6.25c0,-3.449 2.801,-6.25 6.25,-6.25l12.54,0c3.449,0 6.25,2.801 6.25,6.25c0,3.449 -2.801,6.25 -6.25,6.25l-12.54,-0Zm50.152,0c-3.449,0 -6.25,-2.801 -6.25,-6.25c0,-3.449 2.801,-6.25 6.25,-6.25l12.539,0c3.449,0 6.25,2.801 6.25,6.25c0,3.449 -2.801,6.25 -6.25,6.25l-12.539,0Zm50.163,-0c-3.449,0 -6.25,-2.801 -6.25,-6.25c0,-3.449 2.801,-6.25 6.25,-6.25l12.539,0c3.449,0 6.25,2.801 6.25,6.25c0,3.449 -2.801,6.25 -6.25,6.25l-12.539,0Zm50.155,0c-3.449,0 -6.25,-2.801 -6.25,-6.25c0,-3.449 2.801,-6.25 6.25,-6.25l12.54,0c3.449,0 6.25,2.801 6.25,6.25c0,3.449 -2.801,6.25 -6.25,6.25l-12.54,0Zm50.157,0c-3.449,0 -6.25,-2.801 -6.25,-6.25c0,-3.449 2.801,-6.25 6.25,-6.25l12.541,0c3.449,0 6.25,2.801 6.25,6.25c0,3.449 -2.801,6.25 -6.25,6.25l-12.541,0Zm50.153,0c-3.449,0 -6.25,-2.801 -6.25,-6.25c0,-3.449 2.801,-6.25 6.25,-6.25l12.538,0c3.449,0 6.25,2.801 6.25,6.25c0,3.449 -2.801,6.25 -6.25,6.25l-12.538,0Zm50.162,0c-3.449,0 -6.25,-2.801 -6.25,-6.25c0,-3.449 2.801,-6.25 6.25,-6.25l12.541,0c3.449,0 6.25,2.801 6.25,6.25c0,3.449 -2.801,6.25 -6.25,6.25l-12.541,0Zm50.156,0c-3.449,0 -6.25,-2.801 -6.25,-6.25c0,-3.449 2.801,-6.25 6.25,-6.25l12.54,0c3.449,0 6.25,2.801 6.25,6.25c0,3.449 -2.801,6.25 -6.25,6.25l-12.54,0Zm50.154,0c-3.449,0 -6.25,-2.801 -6.25,-6.25c0,-3.449 2.801,-6.25 6.25,-6.25l12.538,0c3.449,0 6.25,2.801 6.25,6.25c0,3.449 -2.801,6.25 -6.25,6.25l-12.538,0Zm50.163,0c-3.449,0 -6.25,-2.801 -6.25,-6.25c0,-3.449 2.801,-6.25 6.25,-6.25l12.54,0c3.449,0 6.25,2.801 6.25,6.25c0,3.449 -2.801,6.25 -6.25,6.25l-12.54,0Zm50.154,0c-3.449,0 -6.25,-2.801 -6.25,-6.25c0,-3.449 2.801,-6.25 6.25,-6.25l12.539,0c3.449,0 6.25,2.801 6.25,6.25c0,3.449 -2.801,6.25 -6.25,6.25l-12.539,0Zm50.158,0c-3.449,0 -6.25,-2.801 -6.25,-6.25c0,-3.449 2.801,-6.25 6.25,-6.25l12.54,0c3.449,0 6.25,2.801 6.25,6.25c0,3.449 -2.801,6.25 -6.25,6.25l-12.54,0Zm50.157,0c-3.449,0 -6.25,-2.801 -6.25,-6.25c0,-3.449 2.801,-6.25 6.25,-6.25l12.539,0c3.449,0 6.25,2.801 6.25,6.25c0,3.449 -2.801,6.25 -6.25,6.25l-12.539,0Zm50.158,0c-3.449,0 -6.25,-2.801 -6.25,-6.25c0,-3.449 2.801,-6.25 6.25,-6.25l12.539,-0c3.449,-0 6.25,2.801 6.25,6.25c0,3.449 -2.801,6.25 -6.25,6.25l-12.539,0Zm50.157,0c-3.449,0 -6.25,-2.801 -6.25,-6.25c0,-3.449 2.801,-6.25 6.25,-6.25l12.54,0c3.449,0 6.25,2.801 6.25,6.25c0,3.449 -2.801,6.25 -6.25,6.25l-12.54,0Zm50.159,0c-3.449,0 -6.25,-2.801 -6.25,-6.25c0,-3.449 2.801,-6.25 6.25,-6.25l12.541,0c3.449,0 6.25,2.801 6.25,6.25c0,3.449 -2.801,6.25 -6.25,6.25l-12.541,0Zm50.15,0c-3.449,0 -6.25,-2.801 -6.25,-6.25c0,-3.449 2.801,-6.25 6.25,-6.25l12.54,0c3.449,0 6.25,2.801 6.25,6.25c0,3.449 -2.801,6.25 -6.25,6.25l-12.54,0Zm50.161,0c-3.449,0 -6.25,-2.801 -6.25,-6.25c0,-3.449 2.801,-6.25 6.25,-6.25l12.539,0c3.449,0 6.25,2.801 6.25,6.25c0,3.449 -2.801,6.25 -6.25,6.25l-12.539,0Zm50.155,0c-3.449,0 -6.25,-2.801 -6.25,-6.25c0,-3.449 2.801,-6.25 6.25,-6.25l12.538,0c3.449,0 6.25,2.801 6.25,6.25c0,3.449 -2.801,6.25 -6.25,6.25l-12.538,-0Zm50.158,0c-3.449,0 -6.25,-2.801 -6.25,-6.25c0,-3.449 2.801,-6.25 6.25,-6.25l12.538,0c3.449,0 6.25,2.801 6.25,6.25c0,3.449 -2.801,6.25 -6.25,6.25l-12.538,0Zm50.158,0c-3.449,0 -6.25,-2.801 -6.25,-6.25c0,-3.449 2.801,-6.25 6.25,-6.25l12.54,0c3.449,0 6.25,2.801 6.25,6.25c0,3.449 -2.801,6.25 -6.25,6.25l-12.54,0Zm50.154,0c-3.449,0 -6.25,-2.801 -6.25,-6.25c0,-3.449 2.801,-6.25 6.25,-6.25l12.538,0c3.449,0 6.25,2.801 6.25,6.25c0,3.449 -2.801,6.25 -6.25,6.25l-12.538,0Zm50.16,0c-3.449,0 -6.25,-2.801 -6.25,-6.25c0,-3.449 2.801,-6.25 6.25,-6.25l12.539,0c3.449,0 6.25,2.801 6.25,6.25c0,3.449 -2.801,6.25 -6.25,6.25l-12.539,0Zm50.16,-0c-3.449,0 -6.25,-2.801 -6.25,-6.25c0,-3.449 2.801,-6.25 6.25,-6.25l12.54,0c3.449,0 6.25,2.801 6.25,6.25c0,3.449 -2.801,6.25 -6.25,6.25l-12.54,0Zm50.155,0c-3.449,0 -6.25,-2.801 -6.25,-6.25c0,-3.449 2.801,-6.25 6.25,-6.25l12.539,0c3.449,0 6.25,2.801 6.25,6.25c0,3.449 -2.801,6.25 -6.25,6.25l-12.539,0Zm50.157,0c-3.449,0 -6.25,-2.801 -6.25,-6.25c0,-3.449 2.801,-6.25 6.25,-6.25l12.539,0c3.449,0 6.25,2.801 6.25,6.25c0,3.449 -2.801,6.25 -6.25,6.25l-12.539,0Zm50.157,0c-3.449,0 -6.25,-2.801 -6.25,-6.25c0,-3.449 2.801,-6.25 6.25,-6.25l12.539,0c3.449,0 6.25,2.801 6.25,6.25c0,3.449 -2.801,6.25 -6.25,6.25l-12.539,0Zm50.155,0c-3.449,0 -6.25,-2.801 -6.25,-6.25c0,-3.449 2.801,-6.25 6.25,-6.25l12.539,0c3.449,0 6.25,2.801 6.25,6.25c0,3.449 -2.801,6.25 -6.25,6.25l-12.539,0Zm50.16,0c-3.449,0 -6.25,-2.801 -6.25,-6.25c0,-3.449 2.801,-6.25 6.25,-6.25l12.539,0c3.449,0 6.25,2.801 6.25,6.25c0,3.449 -2.801,6.25 -6.25,6.25l-12.539,0Zm50.155,0c-3.449,0 -6.25,-2.801 -6.25,-6.25c0,-3.449 2.801,-6.25 6.25,-6.25l12.539,0c3.449,0 6.25,2.801 6.25,6.25c0,3.449 -2.801,6.25 -6.25,6.25l-12.539,0Zm50.159,0c-3.449,0 -6.25,-2.801 -6.25,-6.25c0,-3.449 2.801,-6.25 6.25,-6.25l12.539,0c3.449,0 6.25,2.801 6.25,6.25c0,3.449 -2.801,6.25 -6.25,6.25l-12.539,0Zm50.156,-0c-3.449,0 -6.25,-2.801 -6.25,-6.25c0,-3.449 2.801,-6.25 6.25,-6.25l12.54,0c3.449,0 6.25,2.801 6.25,6.25c0,3.449 -2.801,6.25 -6.25,6.25l-12.54,0Zm50.155,0c-3.449,0 -6.25,-2.801 -6.25,-6.25c0,-3.449 2.801,-6.25 6.25,-6.25l12.539,0c3.449,0 6.25,2.801 6.25,6.25c0,3.449 -2.801,6.25 -6.25,6.25l-12.539,0Zm50.16,0c-3.449,0 -6.25,-2.801 -6.25,-6.25c0,-3.449 2.801,-6.25 6.25,-6.25l12.539,0c3.449,0 6.25,2.801 6.25,6.25c0,3.449 -2.801,6.25 -6.25,6.25l-12.539,0Zm50.157,0c-3.449,0 -6.25,-2.801 -6.25,-6.25c0,-3.449 2.801,-6.25 6.25,-6.25l12.539,0c3.449,0 6.25,2.801 6.25,6.25c0,3.449 -2.801,6.25 -6.25,6.25l-12.539,0Zm50.156,0c-3.449,0 -6.25,-2.801 -6.25,-6.25c0,-3.449 2.801,-6.25 6.25,-6.25l6.27,0c3.449,0 6.25,2.801 6.25,6.25c-0,3.449 -2.801,6.25 -6.25,6.25l-6.27,0Z"/><path d="M3822.317,585.417c-3.449,0 -6.25,-2.801 -6.25,-6.25c-0,-3.449 2.801,-6.25 6.25,-6.25l6.27,0c3.449,0 6.25,2.801 6.25,6.25c0,3.449 -2.801,6.25 -6.25,6.25l-6.27,0Zm43.887,0c-3.449,0 -6.25,-2.801 -6.25,-6.25c0,-3.449 2.801,-6.25 6.25,-6.25l12.539,0c3.449,0 6.25,2.801 6.25,6.25c0,3.449 -2.801,6.25 -6.25,6.25l-12.539,0Zm50.158,0c-3.449,0 -6.25,-2.801 -6.25,-6.25c0,-3.449 2.801,-6.25 6.25,-6.25l12.539,0c3.449,0 6.25,2.801 6.25,6.25c0,3.449 -2.801,6.25 -6.25,6.25l-12.539,0Zm50.158,0c-3.449,0 -6.25,-2.801 -6.25,-6.25c0,-3.449 2.801,-6.25 6.25,-6.25l12.539,0c3.449,0 6.25,2.801 6.25,6.25c0,3.449 -2.801,6.25 -6.25,6.25l-12.539,0Zm50.157,0c-3.449,0 -6.25,-2.801 -6.25,-6.25c0,-3.449 2.801,-6.25 6.25,-6.25l12.54,0c3.449,0 6.25,2.801 6.25,6.25c0,3.449 -2.801,6.25 -6.25,6.25l-12.54,0Zm50.156,0c-3.449,0 -6.25,-2.801 -6.25,-6.25c0,-3.449 2.801,-6.25 6.25,-6.25l12.539,0c3.449,0 6.25,2.801 6.25,6.25c0,3.449 -2.801,6.25 -6.25,6.25l-12.539,0Zm50.156,0c-3.449,0 -6.25,-2.801 -6.25,-6.25c0,-3.449 2.801,-6.25 6.25,-6.25l12.539,0c3.449,0 6.25,2.801 6.25,6.25c0,3.449 -2.801,6.25 -6.25,6.25l-12.539,0Zm50.157,0c-3.449,0 -6.25,-2.801 -6.25,-6.25c0,-3.449 2.801,-6.25 6.25,-6.25l12.539,0c3.449,0 6.25,2.801 6.25,6.25c0,3.449 -2.801,6.25 -6.25,6.25l-12.539,0Zm50.159,-0c-3.449,0 -6.25,-2.801 -6.25,-6.25c0,-3.449 2.801,-6.25 6.25,-6.25l12.541,0c3.449,0 6.25,2.801 6.25,6.25c0,3.449 -2.801,6.25 -6.25,6.25l-12.541,0Zm50.159,0c-3.449,0 -6.25,-2.801 -6.25,-6.25c0,-3.449 2.801,-6.25 6.25,-6.25l12.537,0c3.449,0 6.25,2.801 6.25,6.25c0,3.449 -2.801,6.25 -6.25,6.25l-12.537,0Zm50.157,0c-3.449,0 -6.25,-2.801 -6.25,-6.25c0,-3.449 2.801,-6.25 6.25,-6.25l12.537,0c3.449,0 6.25,2.801 6.25,6.25c0,3.449 -2.801,6.25 -6.25,6.25l-12.537,0Zm50.154,0c-3.449,0 -6.25,-2.801 -6.25,-6.25c0,-3.449 2.801,-6.25 6.25,-6.25l12.54,0c3.449,0 6.25,2.801 6.25,6.25c0,3.449 -2.801,6.25 -6.25,6.25l-12.54,0Zm50.158,0c-3.449,0 -6.25,-2.801 -6.25,-6.25c0,-3.449 2.801,-6.25 6.25,-6.25l12.537,0c3.449,0 6.25,2.801 6.25,6.25c0,3.449 -2.801,6.25 -6.25,6.25l-12.537,-0Zm50.156,0c-3.449,0 -6.25,-2.801 -6.25,-6.25c0,-3.449 2.801,-6.25 6.25,-6.25l12.537,0c3.449,0 6.25,2.801 6.25,6.25c0,3.449 -2.801,6.25 -6.25,6.25l-12.537,0Zm50.161,0c-3.449,0 -6.25,-2.801 -6.25,-6.25c0,-3.449 2.801,-6.25 6.25,-6.25l12.541,0c3.449,0 6.25,2.801 6.25,6.25c0,3.449 -2.801,6.25 -6.25,6.25l-12.541,0Zm50.159,0c-3.449,0 -6.25,-2.801 -6.25,-6.25c0,-3.449 2.801,-6.25 6.25,-6.25l12.539,0c3.449,0 6.25,2.801 6.25,6.25c0,3.449 -2.801,6.25 -6.25,6.25l-12.539,0Zm50.156,0c-3.449,0 -6.25,-2.801 -6.25,-6.25c0,-3.449 2.801,-6.25 6.25,-6.25l12.539,0c3.449,0 6.25,2.801 6.25,6.25c0,3.449 -2.801,6.25 -6.25,6.25l-12.539,0Zm50.157,0c-3.449,0 -6.25,-2.801 -6.25,-6.25c0,-3.449 2.801,-6.25 6.25,-6.25l12.541,0c3.449,0 6.25,2.801 6.25,6.25c0,3.449 -2.801,6.25 -6.25,6.25l-12.541,0Zm50.159,-0c-3.449,0 -6.25,-2.801 -6.25,-6.25c0,-3.449 2.801,-6.25 6.25,-6.25l12.54,0c3.449,0 6.25,2.801 6.25,6.25c0,3.449 -2.801,6.25 -6.25,6.25l-12.54,-0Zm50.152,0c-3.449,0 -6.25,-2.801 -6.25,-6.25c0,-3.449 2.801,-6.25 6.25,-6.25l12.539,0c3.449,0 6.25,2.801 6.25,6.25c0,3.449 -2.801,6.25 -6.25,6.25l-12.539,0Zm50.163,-0c-3.449,0 -6.25,-2.801 -6.25,-6.25c0,-3.449 2.801,-6.25 6.25,-6.25l12.539,0c3.449,0 6.25,2.801 6.25,6.25c0,3.449 -2.801,6.25 -6.25,6.25l-12.539,0Zm50.155,0c-3.449,0 -6.25,-2.801 -6.25,-6.25c0,-3.449 2.801,-6.25 6.25,-6.25l12.54,0c3.449,0 6.25,2.801 6.25,6.25c0,3.449 -2.801,6.25 -6.25,6.25l-12.54,0Zm50.157,0c-3.449,0 -6.25,-2.801 -6.25,-6.25c0,-3.449 2.801,-6.25 6.25,-6.25l12.541,0c3.449,0 6.25,2.801 6.25,6.25c0,3.449 -2.801,6.25 -6.25,6.25l-12.541,0Zm50.153,0c-3.449,0 -6.25,-2.801 -6.25,-6.25c0,-3.449 2.801,-6.25 6.25,-6.25l12.538,0c3.449,0 6.25,2.801 6.25,6.25c0,3.449 -2.801,6.25 -6.25,6.25l-12.538,0Zm50.162,0c-3.449,0 -6.25,-2.801 -6.25,-6.25c0,-3.449 2.801,-6.25 6.25,-6.25l12.541,0c3.449,0 6.25,2.801 6.25,6.25c0,3.449 -2.801,6.25 -6.25,6.25l-12.541,0Zm50.156,0c-3.449,0 -6.25,-2.801 -6.25,-6.25c0,-3.449 2.801,-6.25 6.25,-6.25l12.54,0c3.449,0 6.25,2.801 6.25,6.25c0,3.449 -2.801,6.25 -6.25,6.25l-12.54,0Zm50.154,0c-3.449,0 -6.25,-2.801 -6.25,-6.25c0,-3.449 2.801,-6.25 6.25,-6.25l12.538,0c3.449,0 6.25,2.801 6.25,6.25c0,3.449 -2.801,6.25 -6.25,6.25l-12.538,0Zm50.163,0c-3.449,0 -6.25,-2.801 -6.25,-6.25c0,-3.449 2.801,-6.25 6.25,-6.25l12.54,0c3.449,0 6.25,2.801 6.25,6.25c0,3.449 -2.801,6.25 -6.25,6.25l-12.54,0Zm50.154,0c-3.449,0 -6.25,-2.801 -6.25,-6.25c0,-3.449 2.801,-6.25 6.25,-6.25l12.539,0c3.449,0 6.25,2.801 6.25,6.25c0,3.449 -2.801,6.25 -6.25,6.25l-12.539,0Zm50.158,0c-3.449,0 -6.25,-2.801 -6.25,-6.25c0,-3.449 2.801,-6.25 6.25,-6.25l12.54,0c3.449,0 6.25,2.801 6.25,6.25c0,3.449 -2.801,6.25 -6.25,6.25l-12.54,0Zm50.157,0c-3.449,0 -6.25,-2.801 -6.25,-6.25c0,-3.449 2.801,-6.25 6.25,-6.25l12.539,0c3.449,0 6.25,2.801 6.25,6.25c0,3.449 -2.801,6.25 -6.25,6.25l-12.539,0Zm50.158,0c-3.449,0 -6.25,-2.801 -6.25,-6.25c0,-3.449 2.801,-6.25 6.25,-6.25l12.539,-0c3.449,-0 6.25,2.801 6.25,6.25c0,3.449 -2.801,6.25 -6.25,6.25l-12.539,0Zm50.157,0c-3.449,0 -6.25,-2.801 -6.25,-6.25c0,-3.449 2.801,-6.25 6.25,-6.25l12.54,0c3.449,0 6.25,2.801 6.25,6.25c0,3.449 -2.801,6.25 -6.25,6.25l-12.54,0Zm50.159,0c-3.449,0 -6.25,-2.801 -6.25,-6.25c0,-3.449 2.801,-6.25 6.25,-6.25l12.541,0c3.449,0 6.25,2.801 6.25,6.25c0,3.449 -2.801,6.25 -6.25,6.25l-12.541,0Zm50.15,0c-3.449,0 -6.25,-2.801 -6.25,-6.25c0,-3.449 2.801,-6.25 6.25,-6.25l12.54,0c3.449,0 6.25,2.801 6.25,6.25c0,3.449 -2.801,6.25 -6.25,6.25l-12.54,0Zm50.161,0c-3.449,0 -6.25,-2.801 -6.25,-6.25c0,-3.449 2.801,-6.25 6.25,-6.25l12.539,0c3.449,0 6.25,2.801 6.25,6.25c0,3.449 -2.801,6.25 -6.25,6.25l-12.539,0Zm50.155,0c-3.449,0 -6.25,-2.801 -6.25,-6.25c0,-3.449 2.801,-6.25 6.25,-6.25l12.538,0c3.449,0 6.25,2.801 6.25,6.25c0,3.449 -2.801,6.25 -6.25,6.25l-12.538,-0Zm50.158,0c-3.449,0 -6.25,-2.801 -6.25,-6.25c0,-3.449 2.801,-6.25 6.25,-6.25l12.538,0c3.449,0 6.25,2.801 6.25,6.25c0,3.449 -2.801,6.25 -6.25,6.25l-12.538,0Zm50.158,0c-3.449,0 -6.25,-2.801 -6.25,-6.25c0,-3.449 2.801,-6.25 6.25,-6.25l12.54,0c3.449,0 6.25,2.801 6.25,6.25c0,3.449 -2.801,6.25 -6.25,6.25l-12.54,0Zm50.154,0c-3.449,0 -6.25,-2.801 -6.25,-6.25c0,-3.449 2.801,-6.25 6.25,-6.25l12.538,0c3.449,0 6.25,2.801 6.25,6.25c0,3.449 -2.801,6.25 -6.25,6.25l-12.538,0Zm50.16,0c-3.449,0 -6.25,-2.801 -6.25,-6.25c0,-3.449 2.801,-6.25 6.25,-6.25l12.539,0c3.449,0 6.25,2.801 6.25,6.25c0,3.449 -2.801,6.25 -6.25,6.25l-12.539,0Zm50.16,-0c-3.449,0 -6.25,-2.801 -6.25,-6.25c0,-3.449 2.801,-6.25 6.25,-6.25l12.54,0c3.449,0 6.25,2.801 6.25,6.25c0,3.449 -2.801,6.25 -6.25,6.25l-12.54,0Zm50.155,0c-3.449,0 -6.25,-2.801 -6.25,-6.25c0,-3.449 2.801,-6.25 6.25,-6.25l12.539,0c3.449,0 6.25,2.801 6.25,6.25c0,3.449 -2.801,6.25 -6.25,6.25l-12.539,0Zm50.157,0c-3.449,0 -6.25,-2.801 -6.25,-6.25c0,-3.449 2.801,-6.25 6.25,-6.25l12.539,0c3.449,0 6.25,2.801 6.25,6.25c0,3.449 -2.801,6.25 -6.25,6.25l-12.539,0Zm50.157,0c-3.449,0 -6.25,-2.801 -6.25,-6.25c0,-3.449 2.801,-6.25 6.25,-6.25l12.539,0c3.449,0 6.25,2.801 6.25,6.25c0,3.449 -2.801,6.25 -6.25,6.25l-12.539,0Zm50.155,0c-3.449,0 -6.25,-2.801 -6.25,-6.25c0,-3.449 2.801,-6.25 6.25,-6.25l12.539,0c3.449,0 6.25,2.801 6.25,6.25c0,3.449 -2.801,6.25 -6.25,6.25l-12.539,0Zm50.16,0c-3.449,0 -6.25,-2.801 -6.25,-6.25c0,-3.449 2.801,-6.25 6.25,-6.25l12.539,0c3.449,0 6.25,2.801 6.25,6.25c0,3.449 -2.801,6.25 -6.25,6.25l-12.539,0Zm50.155,0c-3.449,0 -6.25,-2.801 -6.25,-6.25c0,-3.449 2.801,-6.25 6.25,-6.25l12.539,0c3.449,0 6.25,2.801 6.25,6.25c0,3.449 -2.801,6.25 -6.25,6.25l-12.539,0Zm50.159,0c-3.449,0 -6.25,-2.801 -6.25,-6.25c0,-3.449 2.801,-6.25 6.25,-6.25l12.539,0c3.449,0 6.25,2.801 6.25,6.25c0,3.449 -2.801,6.25 -6.25,6.25l-12.539,0Zm50.156,-0c-3.449,0 -6.25,-2.801 -6.25,-6.25c0,-3.449 2.801,-6.25 6.25,-6.25l12.54,0c3.449,0 6.25,2.801 6.25,6.25c0,3.449 -2.801,6.25 -6.25,6.25l-12.54,0Zm50.155,0c-3.449,0 -6.25,-2.801 -6.25,-6.25c0,-3.449 2.801,-6.25 6.25,-6.25l12.539,0c3.449,0 6.25,2.801 6.25,6.25c0,3.449 -2.801,6.25 -6.25,6.25l-12.539,0Zm50.16,0c-3.449,0 -6.25,-2.801 -6.25,-6.25c0,-3.449 2.801,-6.25 6.25,-6.25l12.539,0c3.449,0 6.25,2.801 6.25,6.25c0,3.449 -2.801,6.25 -6.25,6.25l-12.539,0Zm50.157,0c-3.449,0 -6.25,-2.801 -6.25,-6.25c0,-3.449 2.801,-6.25 6.25,-6.25l12.539,0c3.449,0 6.25,2.801 6.25,6.25c0,3.449 -2.801,6.25 -6.25,6.25l-12.539,0Zm50.156,0c-3.449,0 -6.25,-2.801 -6.25,-6.25c0,-3.449 2.801,-6.25 6.25,-6.25l6.27,0c3.449,0 6.25,2.801 6.25,6.25c-0,3.449 -2.801,6.25 -6.25,6.25l-6.27,0Z"/></svg>