<?xml version="1.0" encoding="UTF-8" standalone="no"?><!DOCTYPE svg PUBLIC "-//W3C//DTD SVG 1.1//EN" "http://www.w3.org/Graphics/SVG/1.1/DTD/svg11.dtd"><svg width="100%" height="100%" viewBox="0 0 900 1130" version="1.1" xmlns="http://www.w3.org/2000/svg" xmlns:xlink="http://www.w3.org/1999/xlink" xml:space="preserve" xmlns:serif="http://www.serif.com/" style="fill-rule:evenodd;clip-rule:evenodd;stroke-linejoin:round;stroke-miterlimit:2;"><g><g transform="matrix(1,0,0,0.912485,0,-388.648762)"><g transform="matrix(520.197842,0,0,520.197842,193.991436,904.430374)"></g><text x="84.23px" y="904.43px" style="font-family:'SweetyStrawberry', 'Sweety Strawberry';font-size:520.198px;fill:#2b412c;">I</text></g><g transform="matrix(1,0,0,0.809404,0,-623.399919)"><g transform="matrix(520.197842,0,0,520.197842,788.052779,2074.563157)"></g><text x="88.907px" y="2074.563px" style="font-family:'SweetyStrawberry', 'Sweety Strawberry';font-size:520.198px;fill:#2b412c;">V<tspan x="540.959px " y="2074.563px ">E</tspan></text></g><path d="M569.321,68.735l16.005,22.087l16.005,-22.087c26.675,-36.918 69.568,-58.791 115.129,-58.791c78.424,0 142.017,63.593 142.017,142.017l0,2.774c0,119.717 -149.273,258.747 -227.163,318.178c-13.231,10.03 -29.449,15.045 -45.988,15.045c-16.538,0 -32.863,-4.908 -45.988,-15.045c-77.891,-59.432 -227.163,-198.461 -227.163,-318.178l0,-2.774c0,-78.424 63.593,-142.017 142.017,-142.017c45.561,0 88.454,21.873 115.129,58.791Z" style="fill:#99c799;fill-rule:nonzero;"/></g></svg>